 <svg version="1.0" xmlns="http://www.w3.org/2000/svg"  width="512.000000pt" height="512.000000pt" viewBox="0 0 512.000000 512.000000"  preserveAspectRatio="xMidYMid meet">  <g transform="translate(0.000000,512.000000) scale(0.100000,-0.100000)" fill="#000000" stroke="none"> <path d="M2127 5109 c-209 -20 -417 -79 -588 -164 -154 -78 -355 -233 -461 -357 -111 -130 -217 -314 -266 -463 -78 -232 -68 -547 24 -802 86 -238 199 -407 566 -843 50 -60 295 -357 366 -445 114 -139 161 -184 215 -200 64 -19 97 -19 167 1 167 47 275 244 212 387 -20 44 -146 206 -405 517 -70 85 -154 187 -186 225 -67 81 -141 192 -166 250 -57 133 -67 178 -72 316 -6 158 5 237 48 347 142 360 485 635 889 713 99 19 425 16 530 -4 293 -58 520 -178 678 -361 l42 -49 -16 39 c-126 303 -383 572 -694 729 -171 86 -390 146 -602 165 -127 11 -155 11 -281 -1z"></path> <path d="M2306 3906 c-160 -68 -245 -252 -178 -386 12 -25 87 -124 168 -220 458 -552 494 -595 538 -665 53 -82 105 -204 122 -287 17 -80 19 -268 5 -343 -56 -285 -277 -563 -586 -735 -78 -43 -238 -97 -344 -115 -98 -17 -392 -20 -491 -5 -109 17 -280 69 -376 115 -121 57 -202 113 -296 205 -43 43 -78 75 -78 72 0 -10 93 -186 125 -236 162 -254 427 -462 730 -576 421 -159 922 -133 1320 68 324 162 590 453 708 772 140 380 71 810 -193 1206 -59 89 -188 250 -498 620 -169 201 -286 342 -350 420 -61 74 -118 105 -205 111 -50 3 -74 -1 -121 -21z"></path> </g> </svg> 